<?xml version="1.0" standalone="no"?>
<!DOCTYPE svg PUBLIC "-//W3C//DTD SVG 20010904//EN"
 "http://www.w3.org/TR/2001/REC-SVG-20010904/DTD/svg10.dtd">
<svg version="1.0" xmlns="http://www.w3.org/2000/svg"
 width="225.000000pt" height="225.000000pt" viewBox="0 0 225.000000 225.000000"
 preserveAspectRatio="xMidYMid meet">
<metadata>
Created by potrace 1.14, written by Peter Selinger 2001-2017
</metadata>
<g transform="translate(0.000000,225.000000) scale(0.100000,-0.100000)"
fill="#000000" stroke="none">
<path d="M524 1871 c-53 -24 -109 -91 -123 -146 -7 -30 -11 -261 -11 -724 l0
-681 51 0 c43 0 57 5 93 35 24 19 46 35 50 35 4 0 27 -16 50 -35 60 -49 113
-49 175 0 24 19 47 35 51 35 3 0 25 -16 47 -35 57 -49 108 -49 167 0 24 19 46
35 50 35 4 0 26 -16 49 -35 34 -29 48 -35 87 -35 39 0 53 6 87 35 23 19 45 35
49 35 4 0 26 -16 50 -35 36 -30 50 -35 93 -35 l51 0 0 510 0 510 190 0 190 0
0 188 c0 186 0 189 -27 243 -19 35 -43 64 -71 84 l-44 30 -631 2 c-597 3 -634
2 -673 -16z m234 -633 c7 -7 12 -21 12 -32 0 -14 12 -26 32 -36 45 -21 76 -66
62 -88 -15 -23 -39 -26 -56 -7 -37 46 -50 55 -78 55 -43 0 -80 -20 -87 -48 -8
-34 18 -54 106 -81 88 -27 131 -70 131 -132 0 -33 -6 -47 -34 -75 -19 -19 -43
-34 -55 -34 -15 0 -21 -6 -21 -23 0 -29 -18 -47 -45 -47 -26 0 -45 18 -45 42
0 10 -14 25 -32 34 -74 37 -103 95 -56 110 17 5 27 -1 47 -25 46 -56 153 -51
168 7 8 35 -30 66 -108 88 -82 23 -129 67 -129 120 0 49 20 78 71 104 23 12
39 28 39 38 0 24 19 42 45 42 12 0 26 -5 33 -12z"/>
</g>
</svg>
